<svg width="99" height="22" viewBox="0 0 99 22" fill="none" xmlns="http://www.w3.org/2000/svg">
<path d="M5.24 4.22L4.6 7.84H9.3L8.92 10H4.22L3.56 13.78H8.86L8.46 16H0.34L2.82 2.02H10.92L10.54 4.22H5.24ZM19.1045 4.76C20.2512 4.76 21.1512 5.07333 21.8045 5.7C22.4712 6.31333 22.8045 7.19333 22.8045 8.34C22.8045 8.76667 22.7712 9.15333 22.7045 9.5L21.5445 16H18.7645L19.8445 9.88C19.8845 9.64 19.9045 9.40667 19.9045 9.18C19.9045 8.51333 19.7245 8.00667 19.3645 7.66C19.0179 7.31333 18.5179 7.14 17.8645 7.14C17.1179 7.14 16.4779 7.36667 15.9445 7.82C15.4245 8.26 15.0779 8.9 14.9045 9.74L13.8045 16H10.9845L12.9445 4.92H15.7645L15.5245 6.28C15.9779 5.81333 16.5179 5.44667 17.1445 5.18C17.7712 4.9 18.4245 4.76 19.1045 4.76ZM29.6472 1.2L27.0272 16H24.2072L26.8272 1.2H29.6472ZM33.3936 3.6C32.9536 3.6 32.6003 3.47333 32.3336 3.22C32.0669 2.96667 31.9336 2.64667 31.9336 2.26C31.9336 1.72667 32.1336 1.27333 32.5336 0.899999C32.9469 0.513332 33.4269 0.319999 33.9736 0.319999C34.4003 0.319999 34.7469 0.446666 35.0136 0.699999C35.2803 0.953332 35.4136 1.27333 35.4136 1.66C35.4136 2.19333 35.2136 2.65333 34.8136 3.04C34.4136 3.41333 33.9403 3.6 33.3936 3.6ZM34.5536 4.92L32.5936 16H29.7736L31.7336 4.92H34.5536ZM41.68 4.74C42.5067 4.74 43.2067 4.90667 43.78 5.24C44.3667 5.56 44.78 5.98 45.02 6.5L45.3 4.92H48.12L46.16 16.08C45.9733 17.1067 45.6 18.02 45.04 18.82C44.48 19.6333 43.7467 20.2733 42.84 20.74C41.9333 21.22 40.8933 21.46 39.72 21.46C38.16 21.46 36.94 21.0933 36.06 20.36C35.1933 19.6267 34.8 18.6267 34.88 17.36H37.66C37.7133 17.8667 37.9533 18.2667 38.38 18.56C38.82 18.8667 39.3867 19.02 40.08 19.02C40.9067 19.02 41.6067 18.7733 42.18 18.28C42.7667 17.8 43.1533 17.0667 43.34 16.08L43.64 14.36C43.1867 14.88 42.6133 15.3133 41.92 15.66C41.24 16.0067 40.4933 16.18 39.68 16.18C38.8667 16.18 38.14 16 37.5 15.64C36.8733 15.2667 36.38 14.7467 36.02 14.08C35.6733 13.4 35.5 12.6133 35.5 11.72C35.5 11.3067 35.54 10.8733 35.62 10.42C35.82 9.3 36.2133 8.30667 36.8 7.44C37.4 6.57333 38.1267 5.90667 38.98 5.44C39.8333 4.97333 40.7333 4.74 41.68 4.74ZM44.32 10.46C44.3733 10.1133 44.4 9.86 44.4 9.7C44.4 8.91333 44.1667 8.3 43.7 7.86C43.2467 7.42 42.6733 7.2 41.98 7.2C41.46 7.2 40.9533 7.32667 40.46 7.58C39.98 7.83333 39.56 8.20667 39.2 8.7C38.84 9.18 38.6 9.75333 38.48 10.42C38.44 10.6733 38.42 10.9133 38.42 11.14C38.42 11.94 38.6467 12.5733 39.1 13.04C39.5533 13.4933 40.1267 13.72 40.82 13.72C41.34 13.72 41.8467 13.5933 42.34 13.34C42.8333 13.0733 43.2533 12.6933 43.6 12.2C43.96 11.7067 44.2 11.1267 44.32 10.46ZM57.1347 4.76C58.228 4.76 59.0947 5.07333 59.7347 5.7C60.388 6.32667 60.7147 7.20667 60.7147 8.34C60.7147 8.76667 60.6814 9.15333 60.6147 9.5L59.4547 16H56.6747L57.7547 9.88C57.7947 9.64 57.8147 9.40667 57.8147 9.18C57.8147 8.51333 57.6347 8.00667 57.2747 7.66C56.928 7.31333 56.428 7.14 55.7747 7.14C55.028 7.14 54.3947 7.36667 53.8747 7.82C53.3547 8.26 53.008 8.89333 52.8347 9.72L51.7147 16H48.8947L51.5147 1.2H54.3347L53.4347 6.28C53.888 5.81333 54.4347 5.44667 55.0747 5.18C55.728 4.9 56.4147 4.76 57.1347 4.76ZM65.9973 12.58C65.984 12.66 65.9773 12.7667 65.9773 12.9C65.9773 13.1667 66.0507 13.36 66.1973 13.48C66.3573 13.5867 66.6173 13.64 66.9773 13.64H68.2973L67.8773 16H66.0973C64.0973 16 63.0973 15.1667 63.0973 13.5C63.0973 13.18 63.124 12.8667 63.1773 12.56L64.1173 7.22H62.7973L63.1973 4.92H64.5373L65.0173 2.18H67.8373L67.3573 4.92H69.8173L69.4173 7.22H66.9373L65.9973 12.58ZM76.7113 4.74C78.1246 4.74 79.2446 5.13333 80.0713 5.92C80.8979 6.69333 81.3113 7.74 81.3113 9.06C81.3113 9.48667 81.2779 9.86667 81.2113 10.2C81.1313 10.6 81.0446 10.9467 80.9513 11.24H72.8513C72.8379 11.3333 72.8313 11.4667 72.8313 11.64C72.8313 12.3333 73.0313 12.88 73.4313 13.28C73.8446 13.6667 74.3846 13.86 75.0513 13.86C75.6113 13.86 76.0913 13.74 76.4913 13.5C76.9046 13.2467 77.2379 12.92 77.4913 12.52H80.5113C80.0179 13.5867 79.2513 14.4667 78.2113 15.16C77.1846 15.84 76.0179 16.18 74.7113 16.18C73.2979 16.18 72.1646 15.78 71.3113 14.98C70.4579 14.18 70.0313 13.0933 70.0313 11.72C70.0313 11.32 70.0713 10.9 70.1513 10.46C70.3513 9.31333 70.7579 8.30667 71.3713 7.44C71.9979 6.57333 72.7713 5.90667 73.6913 5.44C74.6113 4.97333 75.6179 4.74 76.7113 4.74ZM78.4313 9.54C78.4579 9.32667 78.4713 9.17333 78.4713 9.08C78.4713 8.44 78.2646 7.94 77.8513 7.58C77.4379 7.22 76.8979 7.04 76.2313 7.04C75.5246 7.04 74.8913 7.26667 74.3313 7.72C73.7713 8.16 73.3779 8.76667 73.1513 9.54H78.4313ZM90.335 4.76C91.4817 4.76 92.3817 5.07333 93.035 5.7C93.7017 6.31333 94.035 7.19333 94.035 8.34C94.035 8.76667 94.0017 9.15333 93.935 9.5L92.775 16H89.995L91.075 9.88C91.115 9.64 91.135 9.40667 91.135 9.18C91.135 8.51333 90.955 8.00667 90.595 7.66C90.2483 7.31333 89.7483 7.14 89.095 7.14C88.3483 7.14 87.7083 7.36667 87.175 7.82C86.655 8.26 86.3083 8.9 86.135 9.74L85.035 16H82.215L84.175 4.92H86.995L86.755 6.28C87.2083 5.81333 87.7483 5.44667 88.375 5.18C89.0017 4.9 89.655 4.76 90.335 4.76ZM96.6577 16.14C96.2177 16.14 95.8643 16.0133 95.5977 15.76C95.331 15.5067 95.1977 15.1867 95.1977 14.8C95.1977 14.2667 95.3977 13.8133 95.7977 13.44C96.211 13.0533 96.691 12.86 97.2377 12.86C97.6777 12.86 98.0243 12.9867 98.2777 13.24C98.5443 13.48 98.6777 13.8 98.6777 14.2C98.6777 14.7333 98.4777 15.1933 98.0777 15.58C97.6777 15.9533 97.2043 16.14 96.6577 16.14Z" fill="#0A1B59"/>
</svg>
